<svg id="Layer_3" data-name="Layer 3" xmlns="http://www.w3.org/2000/svg" viewBox="0 0 287.44 372.93"><defs><style>.cls-1{fill:red;}.cls-2{fill:#66dac7;}.cls-3{fill:none;stroke:red;stroke-linecap:round;stroke-miterlimit:10;stroke-width:7px;}</style></defs><title>coffee chat</title><line class="cls-1" x1="120.19" y1="236.43" x2="120.19" y2="236.3"/><path class="cls-2" d="M399.62,338.43c-.07.78-.13,1.55-.21,2.32a95.52,95.52,0,0,1-3.51,17.53,100.61,100.61,0,0,1-6.47,16.22c-.64,1.3-1.31,2.58-2,3.86a115.09,115.09,0,0,1-6.28,10.13l-.57.81c-1.65,2-3.21,4.12-4.66,6.22-10.57,15-17,31.27-18.85,48.55-2.34,22.57,3.51,45.09,16.3,66.77,1.25,2.11-4.8,2.63-6.42.55a153.52,153.52,0,0,1-18.27-29.5,119.2,119.2,0,0,1-6.55-17.56,98.41,98.41,0,0,1-3.57-34.78c.06-.77.12-1.54.21-2.32a97.21,97.21,0,0,1,9.37-32.53,115.33,115.33,0,0,1,9.62-16.23l.83-1,1.09-1.43a5.46,5.46,0,0,0,.36-.48c.71-.93,1.4-1.88,2.05-2.82a114.13,114.13,0,0,0,9.44-15.83,97.4,97.4,0,0,0,9.58-33,95.56,95.56,0,0,0-.08-20.36c-1.74-15.72-7.3-31.3-16.27-46.47-1.24-2.11,4.81-2.64,6.43-.57C391.56,282.71,401.83,310.5,399.62,338.43Z" transform="translate(-241.31 -255.2)"/><path class="cls-2" d="M450.39,369.29c-.07.7-.14,1.4-.23,2.1A86,86,0,0,1,448,382.6c-.4,1.56-.85,3.1-1.34,4.63a88,88,0,0,1-3.22,8.58,93.65,93.65,0,0,1-4.75,9.51,108.77,108.77,0,0,1-6.33,9.81c-1.52,1.82-2.95,3.68-4.29,5.56-9.74,13.44-15.85,28.09-17.8,43.74a85.42,85.42,0,0,0-.64,8.73c-.42,17.54,4.42,35.07,13.84,52.12,1.07,1.94-4.34,2.31-5.74.4A138.82,138.82,0,0,1,402,498.6c-6.75-15.69-9.59-31.69-8-47.65.07-.71.14-1.41.23-2.11,2-15.72,8.13-30.43,17.94-43.92.6-.73,1.18-1.47,1.75-2.21a4.58,4.58,0,0,0,.34-.43c.65-.84,1.28-1.68,1.88-2.53a103,103,0,0,0,6.27-9.64q1.3-2.26,2.47-4.56a91.84,91.84,0,0,0,3.78-8.44,87.83,87.83,0,0,0,5.43-21.3c2.55-20.47-2.23-41-13.23-60.92-1.07-1.93,4.34-2.31,5.74-.4,12.48,17,20.44,34.69,23.14,52.51A88.5,88.5,0,0,1,450.39,369.29Z" transform="translate(-241.31 -255.2)"/><path class="cls-2" d="M528.75,496.8A131.33,131.33,0,0,1,399.18,628.12c-60.59.8-112.41-40.08-128.17-95.77-15.93-8.36-27.44-25.41-29.63-45.64l0-.25c0-.37,0-.75,0-1.13V474.91c0-6.5,4.73-11.76,10.56-11.76h18.57a131.66,131.66,0,0,1,78.64-88.5.57.57,0,0,1,.68.83,105.88,105.88,0,0,0-9,18,1.47,1.47,0,0,1-.64.73,117.44,117.44,0,0,0,58.87,220c63.75-.94,115.51-53.35,115.68-117.11a117.39,117.39,0,0,0-63-104.36,1,1,0,0,1-.4-1.26A91.6,91.6,0,0,0,456,380.43a.94.94,0,0,1,1.33-.54A131.29,131.29,0,0,1,528.75,496.8Z" transform="translate(-241.31 -255.2)"/><path class="cls-3" d="M380.08,538.13" transform="translate(-241.31 -255.2)"/><path class="cls-3" d="M310.83,461.5" transform="translate(-241.31 -255.2)"/><path class="cls-2" d="M438.38,431.44h0a4.25,4.25,0,0,0,1,6,73.48,73.48,0,0,1-38.47,133.74,4.37,4.37,0,0,0-4.1,4.84h0a4.38,4.38,0,0,0,4.56,3.93,82.16,82.16,0,0,0,42.9-149.55A4.28,4.28,0,0,0,438.38,431.44Z" transform="translate(-241.31 -255.2)"/><path class="cls-2" d="M320,498h0a4.12,4.12,0,0,0-4.12,4.3,82,82,0,0,0,54.3,72.91,4.1,4.1,0,0,0,5.31-2.8l.1-.38a4.15,4.15,0,0,0-2.64-5,73.62,73.62,0,0,1-48.83-65.09A4.15,4.15,0,0,0,320,498Z" transform="translate(-241.31 -255.2)"/><path class="cls-2" d="M414,376.08c-.12.35-.25.7-.38,1.05a57,57,0,0,1-2.38,5.48c-.37.75-.76,1.49-1.16,2.22q-1.14,2.07-2.45,4-1.49,2.24-3.18,4.34t-3.85,4.32c-.85.77-1.67,1.56-2.45,2.38a56.35,56.35,0,0,0-12.47,20.33c-.54,1.44-1,2.9-1.45,4.38a66.68,66.68,0,0,0-2.2,28.08c.16,1.1-2,.72-2.33-.4a80.91,80.91,0,0,1-2.51-15.47,63.24,63.24,0,0,1,3.36-25.12c.12-.35.24-.7.38-1.05a58.06,58.06,0,0,1,13.1-20.47c.34-.31.67-.62,1-.94l.2-.18,1.09-1.09c1.34-1.36,2.6-2.78,3.8-4.25.55-.67,1.08-1.36,1.6-2.06.93-1.26,1.82-2.56,2.65-3.9a57.66,57.66,0,0,0,5.06-10.27,65.21,65.21,0,0,0,3.09-32.44c-.16-1.1,2-.72,2.32.41a73.39,73.39,0,0,1,2,29.2A59.74,59.74,0,0,1,414,376.08Z" transform="translate(-241.31 -255.2)"/></svg>